<svg width="84" height="84" viewBox="0 0 84 84" fill="none" xmlns="http://www.w3.org/2000/svg">
<g clip-path="url(#clip0_104_62)">
<path d="M64.3125 0H19.6875C8.81439 0 0 8.81439 0 19.6875V64.3125C0 75.1856 8.81439 84 19.6875 84H64.3125C75.1856 84 84 75.1856 84 64.3125V19.6875C84 8.81439 75.1856 0 64.3125 0Z" fill="url(#paint0_linear_104_62)"/>
<g filter="url(#filter0_d_104_62)">
<path d="M43.3027 64.364C53.0401 64.364 58.908 59.596 58.908 51.7322C58.908 45.7875 54.7214 41.4842 48.5044 40.8027V40.5553C53.0719 39.8121 56.656 35.5704 56.656 30.8336C56.656 24.084 51.3276 19.6875 43.2075 19.6875H24.9375V64.364H43.3027ZM32.0424 25.3532H41.4947C46.6331 25.3532 49.5511 27.6445 49.5511 31.7933C49.5511 36.2207 46.1573 38.6974 40.004 38.6974H32.0424V25.3532ZM32.0424 58.6983V43.992H41.431C48.1556 43.992 51.6446 46.4687 51.6446 51.2987C51.6446 56.1284 48.2508 58.6983 41.8435 58.6983H32.0424Z" fill="url(#paint1_linear_104_62)"/>
<path d="M43.3027 64.364C53.0401 64.364 58.908 59.596 58.908 51.7322C58.908 45.7875 54.7214 41.4842 48.5044 40.8027V40.5553C53.0719 39.8121 56.656 35.5704 56.656 30.8336C56.656 24.084 51.3276 19.6875 43.2075 19.6875H24.9375V64.364H43.3027ZM32.0424 25.3532H41.4947C46.6331 25.3532 49.5511 27.6445 49.5511 31.7933C49.5511 36.2207 46.1573 38.6974 40.004 38.6974H32.0424V25.3532ZM32.0424 58.6983V43.992H41.431C48.1556 43.992 51.6446 46.4687 51.6446 51.2987C51.6446 56.1284 48.2508 58.6983 41.8435 58.6983H32.0424Z" stroke="white" stroke-width="2"/>
</g>
</g>
<defs>
<filter id="filter0_d_104_62" x="7.9375" y="6.6875" width="67.9705" height="78.6765" filterUnits="userSpaceOnUse" color-interpolation-filters="sRGB">
<feFlood flood-opacity="0" result="BackgroundImageFix"/>
<feColorMatrix in="SourceAlpha" type="matrix" values="0 0 0 0 0 0 0 0 0 0 0 0 0 0 0 0 0 0 127 0" result="hardAlpha"/>
<feOffset dy="4"/>
<feGaussianBlur stdDeviation="8"/>
<feColorMatrix type="matrix" values="0 0 0 0 0 0 0 0 0 0 0 0 0 0 0 0 0 0 0.15 0"/>
<feBlend mode="normal" in2="BackgroundImageFix" result="effect1_dropShadow_104_62"/>
<feBlend mode="normal" in="SourceGraphic" in2="effect1_dropShadow_104_62" result="shape"/>
</filter>
<linearGradient id="paint0_linear_104_62" x1="0" y1="0" x2="84" y2="84" gradientUnits="userSpaceOnUse">
<stop stop-color="#9013FE"/>
<stop offset="1" stop-color="#6B11F4"/>
</linearGradient>
<linearGradient id="paint1_linear_104_62" x1="28.1508" y1="22.6282" x2="48.74" y2="57.4494" gradientUnits="userSpaceOnUse">
<stop stop-color="white"/>
<stop offset="1" stop-color="#F1E5FC"/>
</linearGradient>
<clipPath id="clip0_104_62">
<rect width="84" height="84" fill="white"/>
</clipPath>
</defs>
</svg>
