<svg width="84" height="84" viewBox="0 0 84 84" fill="none" xmlns="http://www.w3.org/2000/svg">
<path d="M75.7313 20.1469L44.0344 1.90313C43.5094 1.57501 42.7875 1.44376 42 1.44376C41.2125 1.44376 40.4906 1.64063 39.9656 1.90313L8.46562 20.2125C7.35 20.8688 6.5625 22.5094 6.5625 23.7563V60.3094C6.5625 61.0313 6.69375 61.8844 7.21875 62.6063L77.3063 21.9188C76.9125 21.1313 76.3219 20.5406 75.7313 20.1469Z" fill="#659AD3"/>
<path d="M7.02185 62.5406C7.34998 63.0656 7.80935 63.525 8.26873 63.7875L39.9 82.0969C40.425 82.425 41.1469 82.5562 41.9344 82.5562C42.7219 82.5562 43.4437 82.3594 43.9687 82.0969L75.4687 63.7875C76.5844 63.1312 77.3719 61.4906 77.3719 60.2437V23.6906C77.3719 23.1 77.3062 22.4437 76.9781 21.8531L7.02185 62.5406Z" fill="#03599C"/>
<path d="M55.9781 49.9406C53.2219 54.7969 47.9719 58.0781 42 58.0781C33.1406 58.0781 25.9219 50.8594 25.9219 42C25.9219 33.1406 33.1406 25.9219 42 25.9219C47.9719 25.9219 53.2219 29.2031 55.9781 34.125L64.5094 29.2031C60.0469 21.3938 51.6469 16.0781 42 16.0781C27.6938 16.0781 16.0781 27.6938 16.0781 42C16.0781 56.3062 27.6938 67.9219 42 67.9219C51.5813 67.9219 59.9812 62.6719 64.4437 54.9281L55.9781 49.9406Z" fill="white"/>
</svg>
