<svg width="84" height="84" viewBox="0 0 84 84" fill="none" xmlns="http://www.w3.org/2000/svg">
<path d="M12.3467 74.8932L5.74878 0.887238H78.2513L71.6468 74.8821L41.9561 83.1134L12.3467 74.8932Z" fill="#1572B6"/>
<path d="M42.0006 76.8219L65.9925 70.1702L71.6369 6.93787H42.0006V76.8219Z" fill="#33A9DC"/>
<path d="M42.0006 33.7503H54.0113L54.8408 24.4558H42.0006V15.3792H64.7607L64.5428 17.8146L62.3115 42.8269H42.0006V33.7503Z" fill="white"/>
<path d="M42.0545 57.3228L42.0145 57.3346L31.9062 54.6052L31.2598 47.3661H22.1498L23.4209 61.6179L42.0132 66.778L42.0545 66.7662V57.3228Z" fill="#EBEBEB"/>
<path d="M53.2396 42.443L52.1463 54.598L42.0229 57.3306V66.7741L60.6303 61.6173L60.7668 60.0836L62.3457 42.443H53.2396Z" fill="white"/>
<path d="M42.0315 15.3792V24.4558H20.1075L19.9257 22.4162L19.5123 17.8146L19.295 15.3792H42.0315ZM42.0006 33.7516V42.8282H32.0197L31.8379 40.7886L31.4239 36.1869L31.2073 33.7516H42.0006Z" fill="#EBEBEB"/>
</svg>
