<svg width="84" height="84" viewBox="0 0 84 84" fill="none" xmlns="http://www.w3.org/2000/svg">
<g clip-path="url(#clip0_178_2)">
<path d="M64.3125 0H19.6875C8.81439 0 0 8.81439 0 19.6875V64.3125C0 75.1856 8.81439 84 19.6875 84H64.3125C75.1856 84 84 75.1856 84 64.3125V19.6875C84 8.81439 75.1856 0 64.3125 0Z" fill="#092E20"/>
<path d="M36.9761 16.7344H46.3654V60.1945C41.5488 61.109 38.0126 61.4749 34.1719 61.4749C22.7092 61.4745 16.7344 56.2928 16.7344 46.3545C16.7344 36.7822 23.0754 30.5639 32.8912 30.5639C34.4154 30.5639 35.5737 30.6853 36.9761 31.0511V16.7344ZM36.9761 38.6108C35.8788 38.2456 34.9643 38.1235 33.8061 38.1235C29.0505 38.1235 26.3064 41.0501 26.3064 46.1711C26.3064 51.1711 28.9285 53.9145 33.745 53.9145C34.7809 53.9145 35.635 53.8535 36.9761 53.6711V38.6108Z" fill="white"/>
<path d="M61.3023 31.2342V52.9994C61.3023 60.499 60.7536 64.0959 59.1074 67.2056C57.583 70.1935 55.5709 72.0831 51.425 74.1562L42.7064 70.0101C46.8523 68.0594 48.8643 66.3528 50.1444 63.7301C51.4861 61.0476 51.9133 57.938 51.9133 49.7684V31.2339L61.3023 31.2342ZM51.9133 16.7842H61.3023V26.4173H51.9133V16.7842Z" fill="white"/>
</g>
<defs>
<clipPath id="clip0_178_2">
<rect width="84" height="84" fill="white"/>
</clipPath>
</defs>
</svg>
