<svg width="84" height="84" viewBox="0 0 84 84" fill="none" xmlns="http://www.w3.org/2000/svg">
<g clip-path="url(#clip0_104_38)">
<g filter="url(#filter0_d_104_38)">
<path d="M81.8587 38.3106L45.6888 2.14201C43.6072 0.0590691 40.2288 0.0590691 38.1439 2.14201L30.6338 9.65344L40.1612 19.1809C42.376 18.4334 44.9144 18.9348 46.6791 20.6994C48.4529 22.4753 48.9504 25.0353 48.1845 27.2574L57.3668 36.4403C59.5882 35.6744 62.1521 36.1692 63.9253 37.9464C66.4059 40.425 66.4059 44.4432 63.9253 46.9232C63.3358 47.513 62.6359 47.9808 61.8655 48.3C61.0952 48.6192 60.2695 48.7835 59.4356 48.7835C58.6017 48.7835 57.776 48.6192 57.0056 48.3C56.2353 47.9808 55.5353 47.513 54.9459 46.9232C54.0602 46.037 53.4564 44.9086 53.2106 43.68C52.9648 42.4514 53.0879 41.1776 53.5644 40.0188L45.0017 31.456L45.0004 53.9923C45.6216 54.2983 46.1889 54.7035 46.6797 55.1919C49.159 57.6706 49.159 61.6875 46.6797 64.1714C44.1998 66.6501 40.1802 66.6501 37.7029 64.1714C35.2236 61.6882 35.2236 57.6713 37.7029 55.1919C38.2969 54.597 39.0034 54.1263 39.7812 53.8073V31.0623C39.0028 30.7441 38.2961 30.2731 37.7029 29.6769C35.8247 27.8001 35.3725 25.0438 36.3359 22.7364L26.943 13.3435L2.14201 38.1432C1.14144 39.1441 0.579346 40.5014 0.579346 41.9167C0.579346 43.3319 1.14144 44.6892 2.14201 45.6901L38.3125 81.8587C40.3955 83.9416 43.7725 83.9416 45.8588 81.8587L81.8593 45.8581C82.8597 44.8569 83.4216 43.4995 83.4214 42.0842C83.4213 40.6689 82.8592 39.3116 81.8587 38.3106Z" fill="#F34F29"/>
<path d="M45.3352 2.49557L45.3351 2.49545C43.449 0.608142 40.3873 0.607675 38.4975 2.49553C38.4974 2.4956 38.4973 2.49566 38.4973 2.49573L31.3408 9.65341L40.301 18.6136C42.6149 17.9488 45.207 18.5203 47.0326 20.3459L47.0328 20.3461C48.8676 22.1829 49.4357 24.7965 48.7533 27.1191L57.505 35.8714C59.8269 35.189 62.4444 35.7543 64.2793 37.5932C66.9548 40.2672 66.9546 44.6016 64.279 47.2767C64.2789 47.2767 64.2789 47.2767 64.2788 47.2768M45.3352 2.49557L53.5644 40.0188C53.0879 41.1776 52.9648 42.4514 53.2106 43.68C53.4564 44.9086 54.0602 46.037 54.9459 46.9232C55.5354 47.513 56.2353 47.9808 57.0056 48.3C57.776 48.6192 58.6017 48.7835 59.4356 48.7835C60.2695 48.7835 61.0952 48.6192 61.8655 48.3C62.6359 47.9808 63.3358 47.513 63.9253 46.9232L64.2788 47.2768M45.3352 2.49557L81.505 38.664C81.5051 38.6641 81.5051 38.6641 81.5051 38.6641C82.4119 39.5714 82.9213 40.8015 82.9214 42.0842C82.9216 43.367 82.4123 44.5973 81.5056 45.5047L45.5055 81.5048C43.6143 83.393 40.5536 83.3926 38.6661 81.5051L38.3125 81.8587L38.6661 81.5051L2.49562 45.3366C2.4956 45.3366 2.49557 45.3366 2.49555 45.3365C1.58875 44.4294 1.07935 43.1993 1.07935 41.9167C1.07935 40.634 1.58875 39.4039 2.49555 38.4968C2.49557 38.4968 2.4956 38.4967 2.49562 38.4967L26.943 14.0506L35.7518 22.8595C34.8796 25.2789 35.4073 28.0895 37.349 30.0301C37.9093 30.5931 38.5635 31.0528 39.2812 31.3889V53.481C38.564 53.8176 37.91 54.2768 37.3491 54.8387C34.6746 57.5134 34.6751 61.8465 37.3491 64.5247L37.3492 64.5249C40.022 67.199 44.3581 67.1988 47.0332 64.5251L47.0336 64.5246C49.7075 61.8458 49.7081 57.5125 47.0332 54.8383L47.0324 54.8375C46.5775 54.3848 46.0617 53.9984 45.5004 53.6893L45.5016 32.6631L52.9816 40.1431M45.3352 2.49557L52.9816 40.1431M64.2788 47.2768C63.6429 47.913 62.8879 48.4176 62.0569 48.762C61.2259 49.1063 60.3351 49.2835 59.4356 49.2835C58.536 49.2835 57.6453 49.1063 56.8142 48.762C55.9832 48.4176 55.2281 47.9129 54.5922 47.2767L54.5922 47.2766C53.6368 46.3206 52.9855 45.1034 52.7203 43.7781C52.4772 42.563 52.5686 41.3069 52.9816 40.1431M64.2788 47.2768L52.9816 40.1431" stroke="black"/>
</g>
</g>
<defs>
<filter id="filter0_d_104_38" x="-3.42065" y="0.579803" width="90.842" height="90.8411" filterUnits="userSpaceOnUse" color-interpolation-filters="sRGB">
<feFlood flood-opacity="0" result="BackgroundImageFix"/>
<feColorMatrix in="SourceAlpha" type="matrix" values="0 0 0 0 0 0 0 0 0 0 0 0 0 0 0 0 0 0 127 0" result="hardAlpha"/>
<feOffset dy="4"/>
<feGaussianBlur stdDeviation="2"/>
<feComposite in2="hardAlpha" operator="out"/>
<feColorMatrix type="matrix" values="0 0 0 0 0 0 0 0 0 0 0 0 0 0 0 0 0 0 0.25 0"/>
<feBlend mode="normal" in2="BackgroundImageFix" result="effect1_dropShadow_104_38"/>
<feBlend mode="normal" in="SourceGraphic" in2="effect1_dropShadow_104_38" result="shape"/>
</filter>
<clipPath id="clip0_104_38">
<rect width="84" height="84" fill="white"/>
</clipPath>
</defs>
</svg>
