<svg width="84" height="84" viewBox="0 0 84 84" fill="none" xmlns="http://www.w3.org/2000/svg">
<g clip-path="url(#clip0_104_60)">
<g filter="url(#filter0_d_104_60)">
<path d="M42 1.03949C18.795 1.03949 0 19.845 0 43.0395C0 61.6 12.033 77.3395 28.7175 82.887C30.8175 83.2825 31.5875 81.984 31.5875 80.8675C31.5875 79.87 31.5525 77.2275 31.535 73.7275C19.852 76.2615 17.388 68.0925 17.388 68.0925C15.477 63.245 12.7155 61.95 12.7155 61.95C8.911 59.346 13.0095 59.3985 13.0095 59.3985C17.227 59.6925 19.4425 63.7245 19.4425 63.7245C23.1875 70.147 29.274 68.292 31.675 67.2175C32.053 64.5015 33.1345 62.65 34.335 61.6C25.0075 60.55 15.204 56.938 15.204 40.845C15.204 36.26 16.8315 32.515 19.5265 29.575C19.054 28.5145 17.6365 24.2445 19.894 18.459C19.894 18.459 23.4115 17.332 31.444 22.764C34.804 21.8295 38.374 21.3675 41.944 21.3465C45.514 21.3675 49.084 21.8295 52.444 22.764C60.424 17.332 63.9415 18.459 63.9415 18.459C66.199 24.2445 64.7815 28.5145 64.3615 29.575C67.039 32.515 68.6665 36.26 68.6665 40.845C68.6665 56.98 58.849 60.5325 49.504 61.565C50.974 62.825 52.339 65.401 52.339 69.335C52.339 74.956 52.2865 79.471 52.2865 80.836C52.2865 81.9385 53.0215 83.251 55.174 82.831C71.9775 77.322 84 61.572 84 43.0395C84 19.845 65.1945 1.03949 42 1.03949Z" fill="black"/>
</g>
</g>
<defs>
<filter id="filter0_d_104_60" x="-4" y="1.03949" width="92" height="89.9201" filterUnits="userSpaceOnUse" color-interpolation-filters="sRGB">
<feFlood flood-opacity="0" result="BackgroundImageFix"/>
<feColorMatrix in="SourceAlpha" type="matrix" values="0 0 0 0 0 0 0 0 0 0 0 0 0 0 0 0 0 0 127 0" result="hardAlpha"/>
<feOffset dy="4"/>
<feGaussianBlur stdDeviation="2"/>
<feComposite in2="hardAlpha" operator="out"/>
<feColorMatrix type="matrix" values="0 0 0 0 0 0 0 0 0 0 0 0 0 0 0 0 0 0 0.25 0"/>
<feBlend mode="normal" in2="BackgroundImageFix" result="effect1_dropShadow_104_60"/>
<feBlend mode="normal" in="SourceGraphic" in2="effect1_dropShadow_104_60" result="shape"/>
</filter>
<clipPath id="clip0_104_60">
<rect width="84" height="84" fill="white"/>
</clipPath>
</defs>
</svg>
