<svg width="24" height="24" viewBox="0 0 24 24" fill="none" xmlns="http://www.w3.org/2000/svg">
<path d="M12 19.35C14.0333 17.4833 15.5417 15.7873 16.525 14.262C17.5083 12.7367 18 11.3827 18 10.2C18 8.38333 17.4207 6.896 16.262 5.738C15.1033 4.58 13.6827 4.00067 12 4C10.3167 4 8.89567 4.57933 7.737 5.738C6.57833 6.89667 5.99933 8.384 6 10.2C6 11.3833 6.49167 12.7377 7.475 14.263C8.45833 15.7883 9.96667 17.484 12 19.35ZM12 22C9.31667 19.7167 7.31267 17.596 5.988 15.638C4.66333 13.68 4.00067 11.8673 4 10.2C4 7.7 4.80433 5.70833 6.413 4.225C8.02167 2.74167 9.884 2 12 2C14.1167 2 15.9793 2.74167 17.588 4.225C19.1967 5.70833 20.0007 7.7 20 10.2C20 11.8667 19.3373 13.6793 18.012 15.638C16.6867 17.5967 14.6827 19.7173 12 22ZM9 13H11V10.25H13V13H15V8.25L12 6.25L9 8.25V13Z" fill="#FCFCFC"/>
</svg>
