<svg width="84" height="84" viewBox="0 0 84 84" fill="none" xmlns="http://www.w3.org/2000/svg">
<path d="M12.493 74.7311L5.92725 1.09003H78.0727L71.4997 74.72L41.956 82.91L12.493 74.7311Z" fill="#E44D26"/>
<path d="M42 76.65L65.8731 70.0311L71.4899 7.11111H42V76.65Z" fill="#F16529"/>
<path d="M42 34.4236H30.0484L29.2228 25.1744H42V16.1431H19.3522L19.5687 18.566L21.7882 43.4556H42V34.4236ZM42 57.8799L41.96 57.8911L31.9016 55.1742L31.2592 47.9719H22.1918L23.457 62.1528L41.9587 67.2886L42 67.2774V57.8799Z" fill="#EBEBEB"/>
<path d="M41.9685 34.4236V43.4556H53.09L52.0419 55.169L41.9685 57.8878V67.2847L60.4846 62.1528L60.6204 60.627L62.7428 36.8491L62.9626 34.4236H60.5292H41.9685ZM41.9685 16.1431V25.1744H63.7849L63.966 23.1453L64.3781 18.566L64.594 16.1431H41.9685Z" fill="white"/>
</svg>
