<svg width="84" height="84" viewBox="0 0 84 84" fill="none" xmlns="http://www.w3.org/2000/svg">
<g clip-path="url(#clip0_104_28)">
<path d="M0.92395 0.924011H83.076V83.0767H0.92395V0.924011Z" fill="#F0DB4F"/>
<path d="M76.3528 63.483C75.751 59.7352 73.3071 56.5871 66.068 53.6517C63.5533 52.4961 60.7498 51.6685 59.9144 49.7628C59.6177 48.6537 59.5784 48.029 59.7661 47.3576C60.3048 45.1789 62.9056 44.4997 64.9668 45.1244C66.2944 45.5694 67.5511 46.5924 68.3091 48.2245C71.8542 45.929 71.847 45.9441 74.3223 44.3664C73.416 42.9614 72.9324 42.313 72.3391 41.7119C70.207 39.3304 67.3018 38.1039 62.6555 38.1977L60.2353 38.5107C57.9161 39.0968 55.7058 40.3141 54.4097 41.9462C50.5208 46.3588 51.6299 54.0816 56.3621 57.2598C61.0241 60.7589 67.8727 61.5549 68.7475 64.827C69.5986 68.8328 65.8036 70.1295 62.0314 69.6688C59.2516 69.0907 57.7054 67.6778 56.034 65.1085C52.9575 66.8889 52.9575 66.8889 49.7943 68.7081C50.5444 70.348 51.3326 71.0903 52.59 72.511C58.5408 78.5472 73.4325 78.2506 76.1034 69.1143C76.2117 68.8006 76.9309 66.7085 76.3528 63.483ZM45.5845 38.6814H37.9005L37.869 58.5473C37.869 62.7723 38.0875 66.6455 37.4004 67.8326C36.2762 70.1676 33.3631 69.8782 32.0356 69.4254C30.6843 68.7612 29.9972 67.8169 29.2012 66.4821C28.9827 66.0988 28.8186 65.8022 28.7635 65.7792L22.516 69.6052C23.5548 71.7373 25.0852 73.5879 27.0454 74.7902C29.9736 76.5476 33.9091 77.0864 38.0251 76.1414C40.704 75.3611 43.0153 73.7448 44.2254 71.2845C45.975 68.059 45.5996 64.155 45.5838 59.8369C45.6232 52.792 45.5845 45.7485 45.5845 38.6814Z" fill="#323330"/>
</g>
<defs>
<clipPath id="clip0_104_28">
<rect width="84" height="84" fill="white"/>
</clipPath>
</defs>
</svg>
