<svg width="84" height="84" viewBox="0 0 84 84" fill="none" xmlns="http://www.w3.org/2000/svg">
<g clip-path="url(#clip0_181_17)">
<path d="M64.3125 0H19.6875C8.81439 0 0 8.81439 0 19.6875V64.3125C0 75.1856 8.81439 84 19.6875 84H64.3125C75.1856 84 84 75.1856 84 64.3125V19.6875C84 8.81439 75.1856 0 64.3125 0Z" fill="white"/>
<path d="M64.3125 0H19.6875C8.81439 0 0 8.81439 0 19.6875V64.3125C0 75.1856 8.81439 84 19.6875 84H64.3125C75.1856 84 84 75.1856 84 64.3125V19.6875C84 8.81439 75.1856 0 64.3125 0Z" fill="#0A66C2"/>
<path d="M60.6096 71.4279H70.2138C70.5619 71.4279 70.8957 71.2897 71.1418 71.0436C71.3879 70.7975 71.5262 70.4638 71.5263 70.1157L71.5312 49.8238C71.5312 39.2178 69.2459 31.0656 56.8516 31.0656C52.14 30.8903 47.6969 33.3191 45.2993 37.3747C45.2876 37.3945 45.2697 37.4098 45.2485 37.4184C45.2272 37.427 45.2038 37.4284 45.1816 37.4224C45.1595 37.4164 45.1399 37.4034 45.1259 37.3852C45.1119 37.3671 45.1043 37.3448 45.1041 37.3219V33.3572C45.1041 33.0091 44.9658 32.6753 44.7196 32.4291C44.4735 32.183 44.1397 32.0447 43.7916 32.0447H34.6772C34.3291 32.0447 33.9953 32.183 33.7492 32.4291C33.503 32.6753 33.3647 33.0091 33.3647 33.3572V70.1137C33.3647 70.4618 33.503 70.7957 33.7492 71.0418C33.9953 71.288 34.3291 71.4262 34.6772 71.4262H44.2808C44.6289 71.4262 44.9627 71.288 45.2089 71.0418C45.455 70.7957 45.5933 70.4618 45.5933 70.1137V51.9445C45.5933 46.807 46.5678 41.8317 52.9371 41.8317C59.2157 41.8317 59.2971 47.7104 59.2971 52.2772V70.1154C59.2971 70.4635 59.4354 70.7973 59.6815 71.0435C59.9277 71.2896 60.2615 71.4279 60.6096 71.4279ZM12.4688 19.5651C12.4688 23.4583 15.6735 26.6615 19.5667 26.6615C23.459 26.6611 26.6618 23.456 26.6618 19.5638C26.6611 15.6716 23.458 12.4688 19.5654 12.4688C15.6719 12.4688 12.4688 15.6722 12.4688 19.5651ZM14.7522 71.4279H24.3685C24.7166 71.4279 25.0505 71.2896 25.2966 71.0435C25.5428 70.7973 25.681 70.4635 25.681 70.1154V33.3572C25.681 33.0091 25.5428 32.6753 25.2966 32.4291C25.0505 32.183 24.7166 32.0447 24.3685 32.0447H14.7522C14.4041 32.0447 14.0702 32.183 13.8241 32.4291C13.578 32.6753 13.4397 33.0091 13.4397 33.3572V70.1154C13.4397 70.4635 13.578 70.7973 13.8241 71.0435C14.0702 71.2896 14.4041 71.4279 14.7522 71.4279Z" fill="white"/>
</g>
<defs>
<clipPath id="clip0_181_17">
<rect width="84" height="84" fill="white"/>
</clipPath>
</defs>
</svg>
