<svg width="84" height="84" viewBox="0 0 84 84" fill="none" xmlns="http://www.w3.org/2000/svg">
<g clip-path="url(#clip0_178_11)">
<path d="M24.9884 55.4297L27.5412 67.5813C28.1147 70.3403 28.3539 72.2662 28.2581 73.364C29.6543 67.8783 30.6298 61.9001 31.1848 55.4297H34.2544C32.9346 65.9636 31.1937 73.6184 29.0328 78.3937C27.3492 82.0735 25.5048 83.9134 23.4964 83.9134C22.9609 83.9134 22.3007 83.676 21.5173 83.2048V80.6655C21.9 80.7478 22.3491 80.7919 22.8656 80.7919C23.8025 80.7919 24.5577 80.4109 25.1322 79.6505C25.8202 78.7241 26.1645 77.6829 26.1645 76.5288C26.1645 75.7408 25.896 74.1236 25.3613 71.6773L21.8044 55.4297H24.9884ZM5.45065 47.9609L10.1264 68.8901H10.1553L14.8598 47.9609H18.7035C19.5451 58.3403 20.0422 67.8371 20.1948 76.4453H16.9542C16.8402 68.3984 16.5244 60.8317 16.0079 53.7436H15.9797L11.045 76.4453H8.57719L3.67238 53.7436H3.6435C3.27961 60.5508 3.05058 68.1175 2.95509 76.4453H0C0.190969 66.3172 0.668883 56.8232 1.43374 47.9609H5.45065Z" fill="#00758F"/>
<path d="M57.8317 47.5382C62.8614 47.5382 65.3763 52.2523 65.3763 61.676C65.3763 66.7969 64.62 70.665 63.1088 73.2781C62.8364 73.7556 62.5354 74.1682 62.2184 74.5504L65.7778 77.1322L65.7743 77.132L64.5105 80.3336L59.8753 76.3659C59.107 76.6997 58.2616 76.8665 57.3404 76.8665C54.8707 76.8665 53.026 75.8106 51.8064 73.7015C50.4676 71.3682 49.7986 67.6951 49.7986 62.6883C49.7986 57.5963 50.5536 53.7429 52.0653 51.1264C53.4421 48.733 55.3645 47.5382 57.8317 47.5382ZM42.4295 47.5796C44.2272 47.5796 45.8617 48.2853 47.334 49.6917L46.5862 52.1363C45.3264 51.3507 44.0843 50.9562 42.8594 50.9562C41.8655 50.9562 41.0996 51.3072 40.5658 52.0133C40.029 52.7133 39.6969 53.6139 39.6969 54.7119C39.6969 56.3992 40.5162 57.8623 42.0291 59.0985C42.5247 59.4959 43.0186 59.8979 43.5107 60.3045L43.6236 60.3977L43.6802 60.4444L43.7932 60.5375L43.8497 60.5842L43.9625 60.6776C45.1077 61.6247 46.1853 62.5287 46.1853 62.5287C47.6979 64.104 48.4519 65.7836 48.4519 68.5498C48.4519 70.9656 47.8485 72.9486 46.6456 74.5003C45.4419 76.045 43.8247 76.8196 41.7995 76.8196C39.9054 76.8196 38.0697 75.9281 36.2916 74.16L37.1234 71.7131C38.6536 72.8384 40.0383 73.4004 41.2818 73.4004C42.4479 73.4004 43.3608 73.0184 44.0211 72.2641C44.6801 71.5042 45.075 70.4445 45.075 69.1007C45.075 67.4094 44.2731 65.9636 42.802 64.7508C42.3415 64.3775 41.8824 64.0007 41.4246 63.6203L41.3119 63.5266C41.1049 63.355 40.8964 63.1812 40.6921 63.0111L40.5814 62.9187C39.588 62.0897 38.7291 61.3655 38.7291 61.3655C37.2584 59.7873 36.521 58.0941 36.521 55.304C36.521 52.9965 37.0709 51.1315 38.1692 49.7126C39.27 48.2906 40.6903 47.5796 42.4295 47.5796ZM71.2873 47.9609V72.9414H77.3967V76.4453H68.1888V47.9609H71.2873ZM80.7914 72.9522V73.5443H80.1198V76.4422H79.6063V73.5443H78.9085V72.9522H80.7916H80.7914ZM82.0318 72.9522L82.6767 75.3312L83.2691 72.9522H83.9971V76.4422H83.5131V73.7862L82.8388 76.4422H82.4898L81.8144 73.7862H81.7885V76.4422H81.3306V72.9522H82.0319H82.0318ZM57.5154 51.0412C54.5515 51.0412 53.0687 54.6299 53.0687 61.8023C53.0687 65.9109 53.4616 68.8901 54.246 70.747C54.9724 72.4655 56.1102 73.3231 57.6595 73.3231C60.6234 73.3231 62.106 69.7065 62.106 62.4768C62.106 58.4257 61.7131 55.472 60.9297 53.6142C60.2024 51.8995 59.0651 51.0412 57.5156 51.0412H57.5154Z" fill="#F29111"/>
<path d="M49.7467 1.76492C50.7299 -1.77945 54.1678 0.9047 55.502 2.1428C55.829 2.45256 56.204 3.10699 56.5789 3.34888C57.1638 3.38258 57.7482 3.44973 58.334 3.48559C59.4329 3.86444 60.4623 4.17396 61.3282 4.89747C65.3523 8.3742 67.9719 11.9171 70.3828 17.7692C70.8979 19.0087 71.1554 20.3501 71.5762 21.6915C72.1602 23.6908 72.8165 25.7896 73.4944 27.6802C73.7979 28.5766 74.0327 29.5733 74.4542 30.3302C74.6187 30.6763 75.0861 30.7784 75.3655 30.9851C76.1379 31.5717 77.0738 32.017 77.8002 32.7053C79.1569 33.9463 80.4685 35.4251 81.6609 36.939C82.1054 37.5234 82.4082 38.3507 82.8317 38.9687V39.2807C82.4558 39.4499 82.0813 39.6232 81.7064 39.762C80.8875 40.0706 80.1622 40.0008 79.3678 40.3096C78.877 40.5185 78.2675 40.7941 77.7526 40.8642L77.8002 40.9344C78.1031 42.2041 79.7417 43.2366 80.4912 43.996C81.4014 44.9597 82.2448 46.1285 82.9237 47.4708C83.1582 47.8133 83.3926 48.125 83.6259 48.4665C83.789 48.8126 83.8349 49.2603 84 49.5689V49.6733C83.8172 49.5787 83.6858 49.3982 83.5613 49.2095L83.487 49.0957C83.4126 48.9825 83.3377 48.8714 83.2522 48.7796C82.7357 48.2622 82.2229 47.6431 81.7064 47.162C80.8185 46.3355 79.7887 45.8558 78.877 45.0261C78.3615 44.5445 77.8701 43.996 77.3787 43.4448C76.9333 42.9617 76.4428 42.0341 76.1629 41.3458C75.998 40.9655 75.9754 40.5185 75.787 40.2434C75.8206 39.7839 76.1076 39.6475 76.3972 39.5353L76.4638 39.5096C76.5637 39.4715 76.6615 39.4335 76.7468 39.3832C77.9631 38.6255 79.4133 38.3506 81.2859 38.4195C81.2153 37.7297 80.0453 36.8702 79.6717 36.4572C78.9219 35.6643 78.128 34.8371 77.3326 34.1155C76.9112 33.7376 76.1849 33.4618 75.7179 33.153C75.0861 32.7742 73.6819 32.3956 73.3318 31.674C72.7371 30.5365 72.3099 29.1797 71.8951 27.8093L71.7822 27.4352C71.7446 27.3106 71.7069 27.186 71.669 27.0614C71.1788 25.411 70.5698 23.6904 70.0785 22.0005C69.8215 21.1761 69.7036 20.4526 69.4222 19.662C67.7148 14.8102 65.1878 10.7481 62.1239 7.89138C61.117 6.96185 59.9944 6.10163 58.755 5.517C58.0527 5.20579 57.2097 5.37788 56.4614 5.13912H55.9689C55.5486 4.96534 55.1977 4.31163 54.8697 3.96697C54.1454 3.24539 53.4199 2.76088 52.5536 2.24605C52.2501 2.03954 51.3834 1.55865 51.0808 1.93725C50.8935 2.00633 50.7985 2.11006 50.7524 2.38589C50.566 2.79747 50.7299 3.41748 50.8459 3.79704C51.1973 4.89699 51.6882 5.55069 52.1338 6.48023C52.5302 7.30459 53.0225 8.23412 53.3036 9.13044C53.9099 11.0571 54.1923 13.1918 54.7542 15.1183C54.9626 15.8427 55.2922 16.6671 55.5955 17.3206C55.8526 17.8392 56.32 18.2142 56.4614 18.8708C56.7433 19.5592 56.0395 21.8306 55.8765 22.5519C55.2671 25.3745 55.3852 29.2979 56.087 31.7445L56.1245 31.8735L56.1619 32.0042C56.4181 32.9003 56.6924 33.8652 57.3738 34.1158C57.4207 34.0474 57.3738 34.0833 57.4668 34.0474C57.6317 32.1537 57.6781 30.33 58.1231 28.8483C58.3801 27.9219 58.8935 27.267 59.2454 26.5107C59.48 26.7168 59.48 27.338 59.6198 27.7491C59.9243 28.8153 60.2513 29.9843 60.6267 31.0537C61.3971 33.256 62.264 35.3912 63.2462 37.3176C63.5752 38.0057 64.0419 38.7632 64.4629 39.383C64.6504 39.6229 64.8605 39.7616 65.0014 40.0704H65.0473V40.1743C64.3455 39.7948 63.9005 38.7295 63.3407 38.1076C62.2868 36.9385 61.0247 35.183 60.2982 33.4984C59.9944 32.5313 59.6659 31.6044 59.3384 30.6421V30.5726C59.1985 30.8475 59.2454 31.1204 59.1754 31.5363C58.8715 33.256 59.1055 35.2179 58.0527 35.8364C56.8593 36.5609 55.9691 34.6674 55.5955 33.807C54.4018 30.951 54.0748 26.1329 54.9166 22.2436C55.1037 21.3826 55.1291 20.3501 55.4556 19.6627C55.385 19.0412 55.0585 18.8713 54.8697 18.4905C54.5422 17.8397 54.2618 17.0816 54.0054 16.3588C53.5129 14.9469 53.1625 13.2599 52.7886 11.7458C52.6242 11.1274 52.5771 10.5067 52.4132 9.92134C52.1336 9.02791 51.6183 8.13159 51.2208 7.34117C50.6825 6.20512 49.1147 4.00331 49.7467 1.76492ZM57.4202 8.50778C57.4827 8.59973 57.5582 8.68012 57.6363 8.7593L57.7305 8.85413C57.856 8.9817 57.9775 9.116 58.052 9.29892C58.1701 9.54106 58.1921 9.78006 58.3336 10.0227C58.3336 10.8499 58.1701 11.3999 57.8402 11.7426C57.8402 11.7426 57.8177 11.7787 57.7946 11.8124C57.6076 11.261 57.4437 10.7125 57.2553 10.1615C57.0233 9.68066 56.6954 9.29916 56.5064 8.74967H56.4609V8.6806C56.7433 8.57831 57.0233 8.50778 57.4202 8.50778Z" fill="#00758F"/>
</g>
<defs>
<clipPath id="clip0_178_11">
<rect width="84" height="84" fill="white"/>
</clipPath>
</defs>
</svg>
