<svg width="84" height="84" viewBox="0 0 84 84" fill="none" xmlns="http://www.w3.org/2000/svg">
<path d="M41.6004 8.03775C38.8297 8.05088 36.185 8.28647 33.8566 8.6986C26.9988 9.91003 25.7545 12.4458 25.7545 17.1229V23.2988H41.9593V25.3575H19.6724C14.9632 25.3575 10.8393 28.1879 9.5491 33.5744C8.06073 39.7464 7.9951 43.5986 9.5491 50.0437C10.7008 54.8415 13.4518 58.2593 18.1617 58.2593H23.7339V50.8554C23.7339 45.5064 28.3612 40.7886 33.8573 40.7886H50.0437C54.5495 40.7886 58.1457 37.0781 58.1457 32.5539V17.1235C58.1457 12.7313 54.4405 9.43228 50.0437 8.69925C47.2585 8.23594 44.3704 8.02528 41.6004 8.03775ZM32.8368 13.0049C34.5102 13.0049 35.8779 14.3942 35.8779 16.1031C35.8779 17.8047 34.5109 19.1809 32.8368 19.1809C31.1568 19.1809 29.7964 17.8047 29.7964 16.1031C29.7957 14.3942 31.1568 13.0049 32.8368 13.0049Z" fill="url(#paint0_linear_104_34)"/>
<path d="M60.1663 25.3575V32.5539C60.1663 38.1321 55.436 42.8275 50.043 42.8275H33.8566C29.423 42.8275 25.7545 46.6226 25.7545 51.0628V66.4945C25.7545 70.8855 29.5726 73.4692 33.8566 74.7285C38.9858 76.2359 43.9051 76.5089 50.043 74.7285C54.1222 73.5466 58.145 71.1697 58.145 66.4945V60.3179H41.9593V58.2586H66.2484C70.9577 58.2586 72.7138 54.9741 74.3518 50.043C76.0436 44.9669 75.9708 40.0851 74.3518 33.5737C73.1876 28.8848 70.9649 25.3568 66.2484 25.3568L60.1663 25.3575ZM51.0621 64.4352C52.7428 64.4352 54.1032 65.8114 54.1032 67.5143C54.1032 69.2219 52.7421 70.6112 51.0621 70.6112C49.3887 70.6112 48.0217 69.2219 48.0217 67.5143C48.0217 65.8114 49.3887 64.4352 51.0621 64.4352Z" fill="url(#paint1_linear_104_34)"/>
<path opacity="0.444" d="M63.859 78.4855C63.859 80.8106 54.136 82.696 42.143 82.696C30.1494 82.696 20.4264 80.8106 20.4264 78.4855C20.4264 76.1598 30.1487 74.2744 42.143 74.2744C54.136 74.2744 63.859 76.1591 63.859 78.4855Z" fill="url(#paint2_radial_104_34)"/>
<defs>
<linearGradient id="paint0_linear_104_34" x1="6.78359" y1="9.96886" x2="44.1595" y2="41.8428" gradientUnits="userSpaceOnUse">
<stop stop-color="#5A9FD4"/>
<stop offset="1" stop-color="#306998"/>
</linearGradient>
<linearGradient id="paint1_linear_104_34" x1="58.2217" y1="61.6562" x2="44.8181" y2="42.8598" gradientUnits="userSpaceOnUse">
<stop stop-color="#FFD43B"/>
<stop offset="1" stop-color="#FFE873"/>
</linearGradient>
<radialGradient id="paint2_radial_104_34" cx="0" cy="0" r="1" gradientUnits="userSpaceOnUse" gradientTransform="translate(42.0552 78.365) rotate(-90) scale(4.21202 18.5153)">
<stop stop-color="#B8B8B8" stop-opacity="0.498"/>
<stop offset="1" stop-color="#7F7F7F" stop-opacity="0"/>
</radialGradient>
</defs>
</svg>
