<svg width="24" height="24" viewBox="0 0 24 24" fill="none" xmlns="http://www.w3.org/2000/svg">
<path d="M12 15C12.9333 15 13.775 14.7707 14.525 14.312C15.275 13.8533 15.8667 13.2493 16.3 12.5C15.7167 12.0167 15.0583 11.6457 14.325 11.387C13.5917 11.1283 12.8167 10.9993 12 11C11.1833 11 10.4083 11.1293 9.675 11.388C8.94167 11.6467 8.28333 12.0173 7.7 12.5C8.13333 13.25 8.725 13.8543 9.475 14.313C10.225 14.7717 11.0667 15.0007 12 15ZM12 10C12.55 10 13.021 9.804 13.413 9.412C13.805 9.02 14.0007 8.54933 14 8C14 7.45 13.804 6.979 13.412 6.587C13.02 6.195 12.5493 5.99933 12 6C11.45 6 10.979 6.196 10.587 6.588C10.195 6.98 9.99933 7.45067 10 8C10 8.55 10.196 9.021 10.588 9.413C10.98 9.805 11.4507 10.0007 12 10ZM12 19.35C14.0333 17.4833 15.5417 15.7873 16.525 14.262C17.5083 12.7367 18 11.3827 18 10.2C18 8.38333 17.4207 6.896 16.262 5.738C15.1033 4.58 13.6827 4.00067 12 4C10.3167 4 8.89567 4.57933 7.737 5.738C6.57833 6.89667 5.99933 8.384 6 10.2C6 11.3833 6.49167 12.7377 7.475 14.263C8.45833 15.7883 9.96667 17.484 12 19.35ZM12 21.625C11.8667 21.625 11.7333 21.6 11.6 21.55C11.4667 21.5 11.35 21.4333 11.25 21.35C8.81667 19.2 7 17.204 5.8 15.362C4.6 13.52 4 11.7993 4 10.2C4 7.7 4.80433 5.70833 6.413 4.225C8.02167 2.74167 9.884 2 12 2C14.1167 2 15.9793 2.74167 17.588 4.225C19.1967 5.70833 20.0007 7.7 20 10.2C20 11.8 19.4 13.521 18.2 15.363C17 17.205 15.1833 19.2007 12.75 21.35C12.65 21.4333 12.5333 21.5 12.4 21.55C12.2667 21.6 12.1333 21.625 12 21.625Z" fill="#FFFEFE"/>
</svg>
